# xmcd
# 
# Track frame offsets:
#     150
#     16905
#     37225
#     59432
#     81850
#     103207
#     123487
#     143110
#     167042
#     188817
#     207900
#     230062
# 
# Disc length: 3191
# 
# Revision: 5
# Processed by: cddbd v1.5.2PL0 Copyright (c) Steve Scherf et al.
# Submitted via: fre:ac v1.0.17
# 
DISCID=ad0c750c
DTITLE=DJ Jazzy Jeff and The Fresh Prince - Homebase
DYEAR=1991
DGENRE=Rap
TTITLE0=I'm All That
TTITLE1=Summertime
TTITLE2=The Things That U Do
TTITLE3=This Boy Is Smooth
TTITLE4=Ring My Bell
TTITLE5=A Dog Is A Dog
TTITLE6=Caught In The Middle
TTITLE7=Trapped On The Dance Floor
TTITLE8=Who Stole The D.J.
TTITLE9=You Saw My Blinker
TTITLE10=Dumb Dancin'
TTITLE11=Summertime ( Reprise )
EXTD=
EXTT0=
EXTT1=
EXTT2=
EXTT3=
EXTT4=
EXTT5=
EXTT6=
EXTT7=
EXTT8=
EXTT9=
EXTT10=
EXTT11=
PLAYORDER=
